<svg xmlns="http://www.w3.org/2000/svg" viewBox="0 0 1200 420" width="1200" height="420" role="img" aria-label="Migración del correo corporativo desde un servidor propio hacia la nube">
<title>Migración del correo corporativo desde un servidor propio hacia la nube</title>
<defs>
<linearGradient id="base" x1="0" y1="0" x2="1" y2="1"><stop offset="0" stop-color="#22232f"/><stop offset="1" stop-color="#101119"/></linearGradient>
<radialGradient id="g1"><stop offset="0" stop-color="#5480f1" stop-opacity="0.30"/><stop offset="1" stop-color="#5480f1" stop-opacity="0"/></radialGradient>
<radialGradient id="g2"><stop offset="0" stop-color="#39c088" stop-opacity="0.20"/><stop offset="1" stop-color="#39c088" stop-opacity="0"/></radialGradient>
<pattern id="malla" width="48" height="48" patternUnits="userSpaceOnUse"><path d="M 48 0 L 0 0 0 48" fill="none" stroke="#ffffff" stroke-opacity="0.028" stroke-width="1"/></pattern>
<marker id="flecha" viewBox="0 0 10 10" refX="9" refY="5" markerWidth="7" markerHeight="7" orient="auto-start-reverse"><path d="M 0 0 L 10 5 L 0 10 z" fill="#c9ccd8" fill-opacity="0.7"/></marker>
</defs>
<rect width="1200" height="420" fill="url(#base)"/>
<rect width="1200" height="420" fill="url(#malla)"/>
<ellipse cx="264" cy="84" rx="600" ry="315" fill="url(#g1)"/>
<ellipse cx="1008" cy="357" rx="504" ry="294" fill="url(#g2)"/>
<line x1="596" y1="346" x2="746" y2="362" stroke="#ffffff" stroke-opacity="0.05"/>
<line x1="596" y1="346" x2="425" y2="238" stroke="#ffffff" stroke-opacity="0.05"/>
<line x1="123" y1="164" x2="77" y2="267" stroke="#ffffff" stroke-opacity="0.05"/>
<line x1="123" y1="164" x2="239" y2="137" stroke="#ffffff" stroke-opacity="0.05"/>
<line x1="123" y1="164" x2="198" y2="134" stroke="#ffffff" stroke-opacity="0.05"/>
<line x1="123" y1="164" x2="287" y2="189" stroke="#ffffff" stroke-opacity="0.05"/>
<line x1="123" y1="164" x2="213" y2="317" stroke="#ffffff" stroke-opacity="0.05"/>
<line x1="123" y1="164" x2="43" y2="308" stroke="#ffffff" stroke-opacity="0.05"/>
<line x1="77" y1="267" x2="239" y2="137" stroke="#ffffff" stroke-opacity="0.05"/>
<line x1="77" y1="267" x2="198" y2="134" stroke="#ffffff" stroke-opacity="0.05"/>
<line x1="77" y1="267" x2="213" y2="317" stroke="#ffffff" stroke-opacity="0.05"/>
<line x1="77" y1="267" x2="43" y2="308" stroke="#ffffff" stroke-opacity="0.05"/>
<line x1="77" y1="267" x2="236" y2="374" stroke="#ffffff" stroke-opacity="0.05"/>
<line x1="239" y1="137" x2="198" y2="134" stroke="#ffffff" stroke-opacity="0.05"/>
<line x1="239" y1="137" x2="287" y2="189" stroke="#ffffff" stroke-opacity="0.05"/>
<line x1="239" y1="137" x2="213" y2="317" stroke="#ffffff" stroke-opacity="0.05"/>
<line x1="239" y1="137" x2="388" y2="193" stroke="#ffffff" stroke-opacity="0.05"/>
<line x1="239" y1="137" x2="393" y2="107" stroke="#ffffff" stroke-opacity="0.05"/>
<line x1="970" y1="41" x2="961" y2="201" stroke="#ffffff" stroke-opacity="0.05"/>
<line x1="198" y1="134" x2="287" y2="189" stroke="#ffffff" stroke-opacity="0.05"/>
<line x1="198" y1="134" x2="213" y2="317" stroke="#ffffff" stroke-opacity="0.05"/>
<line x1="198" y1="134" x2="388" y2="193" stroke="#ffffff" stroke-opacity="0.05"/>
<line x1="198" y1="134" x2="393" y2="107" stroke="#ffffff" stroke-opacity="0.05"/>
<line x1="961" y1="201" x2="1109" y2="247" stroke="#ffffff" stroke-opacity="0.05"/>
<line x1="287" y1="189" x2="213" y2="317" stroke="#ffffff" stroke-opacity="0.05"/>
<line x1="287" y1="189" x2="425" y2="238" stroke="#ffffff" stroke-opacity="0.05"/>
<line x1="287" y1="189" x2="236" y2="374" stroke="#ffffff" stroke-opacity="0.05"/>
<line x1="287" y1="189" x2="388" y2="193" stroke="#ffffff" stroke-opacity="0.05"/>
<line x1="287" y1="189" x2="393" y2="107" stroke="#ffffff" stroke-opacity="0.05"/>
<line x1="213" y1="317" x2="43" y2="308" stroke="#ffffff" stroke-opacity="0.05"/>
<line x1="213" y1="317" x2="236" y2="374" stroke="#ffffff" stroke-opacity="0.05"/>
<line x1="43" y1="308" x2="236" y2="374" stroke="#ffffff" stroke-opacity="0.05"/>
<line x1="425" y1="238" x2="388" y2="193" stroke="#ffffff" stroke-opacity="0.05"/>
<line x1="425" y1="238" x2="393" y2="107" stroke="#ffffff" stroke-opacity="0.05"/>
<line x1="388" y1="193" x2="393" y2="107" stroke="#ffffff" stroke-opacity="0.05"/>
<circle cx="596" cy="346" r="2.2" fill="#ffffff" fill-opacity="0.14"/>
<circle cx="123" cy="164" r="2.2" fill="#ffffff" fill-opacity="0.14"/>
<circle cx="77" cy="267" r="2.2" fill="#ffffff" fill-opacity="0.14"/>
<circle cx="239" cy="137" r="2.2" fill="#ffffff" fill-opacity="0.14"/>
<circle cx="970" cy="41" r="2.2" fill="#ffffff" fill-opacity="0.14"/>
<circle cx="198" cy="134" r="2.2" fill="#ffffff" fill-opacity="0.14"/>
<circle cx="961" cy="201" r="2.2" fill="#ffffff" fill-opacity="0.14"/>
<circle cx="746" cy="362" r="2.2" fill="#ffffff" fill-opacity="0.14"/>
<circle cx="287" cy="189" r="2.2" fill="#ffffff" fill-opacity="0.14"/>
<circle cx="213" cy="317" r="2.2" fill="#ffffff" fill-opacity="0.14"/>
<circle cx="43" cy="308" r="2.2" fill="#ffffff" fill-opacity="0.14"/>
<circle cx="425" cy="238" r="2.2" fill="#ffffff" fill-opacity="0.14"/>
<circle cx="236" cy="374" r="2.2" fill="#ffffff" fill-opacity="0.14"/>
<circle cx="388" cy="193" r="2.2" fill="#ffffff" fill-opacity="0.14"/>
<circle cx="1109" cy="247" r="2.2" fill="#ffffff" fill-opacity="0.14"/>
<circle cx="393" cy="107" r="2.2" fill="#ffffff" fill-opacity="0.14"/>
<rect x="140" y="110" width="190" height="200" rx="8" fill="#ffffff" fill-opacity="0.03" stroke="#c9ccd8" stroke-opacity="0.5" stroke-width="3"/>
<rect x="152" y="125.0" width="166" height="36.0" rx="3" fill="#ffffff" fill-opacity="0.05" stroke="#c9ccd8" stroke-opacity="0.35" stroke-width="2"/>
<circle cx="304" cy="143.0" r="4" fill="#39c088" fill-opacity="0.9"/>
<rect x="152" y="169.0" width="166" height="36.0" rx="3" fill="#ffffff" fill-opacity="0.05" stroke="#c9ccd8" stroke-opacity="0.35" stroke-width="2"/>
<circle cx="304" cy="187.0" r="4" fill="#39c088" fill-opacity="0.9"/>
<rect x="152" y="213.0" width="166" height="36.0" rx="3" fill="#ffffff" fill-opacity="0.05" stroke="#c9ccd8" stroke-opacity="0.35" stroke-width="2"/>
<circle cx="304" cy="231.0" r="4" fill="#39c088" fill-opacity="0.9"/>
<rect x="152" y="257.0" width="166" height="36.0" rx="3" fill="#ffffff" fill-opacity="0.05" stroke="#c9ccd8" stroke-opacity="0.35" stroke-width="2"/>
<circle cx="304" cy="275.0" r="4" fill="#39c088" fill-opacity="0.9"/>
<text x="235" y="342" text-anchor="middle" font-family="Roboto, Helvetica, Arial, sans-serif" font-size="19" font-weight="300" fill="#c9ccd8" fill-opacity="0.6">Servidor propio</text>
<path d="M 833.0 229.0 a 51.0 51.0 0 0 1 15.0 -96.0 a 69.0 69.0 0 0 1 129.0 -21.0 a 48.0 48.0 0 0 1 39.0 93.0 Z" fill="#ffffff" fill-opacity="0.04" stroke="#5480f1" stroke-opacity="0.75" stroke-width="4.5" stroke-linejoin="round"/>
<text x="950" y="342" text-anchor="middle" font-family="Roboto, Helvetica, Arial, sans-serif" font-size="19" font-weight="300" fill="#c9ccd8" fill-opacity="0.6">Suite en la nube</text>
<path d="M 360 210 C 520 130 700 130 830 190" fill="none" stroke="#39c088" stroke-opacity="0.55" stroke-width="3" stroke-dasharray="12 9" marker-end="url(#flecha)"/>
<rect x="439.0" y="147.54" width="62" height="40.92" rx="4" fill="#101119" fill-opacity="0.7" stroke="#39c088" stroke-opacity="0.8" stroke-width="2.5"/>
<path d="M 442.0 151.54 L 470 172 L 498.0 151.54" fill="none" stroke="#39c088" stroke-opacity="0.8" stroke-width="2.5" stroke-linejoin="round"/>
<rect x="569.0" y="129.54" width="62" height="40.92" rx="4" fill="#101119" fill-opacity="0.7" stroke="#5480f1" stroke-opacity="0.8" stroke-width="2.5"/>
<path d="M 572.0 133.54 L 600 154 L 628.0 133.54" fill="none" stroke="#5480f1" stroke-opacity="0.8" stroke-width="2.5" stroke-linejoin="round"/>
<rect x="699.0" y="139.54" width="62" height="40.92" rx="4" fill="#101119" fill-opacity="0.7" stroke="#39c088" stroke-opacity="0.8" stroke-width="2.5"/>
<path d="M 702.0 143.54 L 730 164 L 758.0 143.54" fill="none" stroke="#39c088" stroke-opacity="0.8" stroke-width="2.5" stroke-linejoin="round"/>
<text x="600" y="300" text-anchor="middle" font-family="Roboto, Helvetica, Arial, sans-serif" font-size="20" font-weight="300" fill="#c9ccd8" fill-opacity="0.6">Sin parar la actividad</text>
<rect width="1200" height="420" fill="#0e0f16" fill-opacity="0.10"/>
</svg>
