<svg xmlns="http://www.w3.org/2000/svg" viewBox="0 0 1200 420" width="1200" height="420" preserveAspectRatio="xMidYMid slice" role="img" aria-label="Fondo abstracto de red corporativa">
<defs>
<linearGradient id="base" x1="0" y1="0" x2="1" y2="1"><stop offset="0" stop-color="#20212c"/><stop offset="0.5" stop-color="#191a23"/><stop offset="1" stop-color="#101119"/></linearGradient>
<radialGradient id="g1"><stop offset="0" stop-color="#5480f1" stop-opacity="0.40"/><stop offset="0.55" stop-color="#5480f1" stop-opacity="0.10"/><stop offset="1" stop-color="#5480f1" stop-opacity="0"/></radialGradient>
<radialGradient id="g2"><stop offset="0" stop-color="#39c088" stop-opacity="0.26"/><stop offset="1" stop-color="#39c088" stop-opacity="0"/></radialGradient>
<pattern id="rejilla" width="48" height="48" patternUnits="userSpaceOnUse"><path d="M 48 0 L 0 0 0 48" fill="none" stroke="#ffffff" stroke-opacity="0.028" stroke-width="1"/></pattern>
</defs>
<rect width="100%" height="100%" fill="url(#base)"/>
<rect width="100%" height="100%" fill="url(#rejilla)"/>
<ellipse cx="936" cy="109" rx="660" ry="260" fill="url(#g1)"/>
<ellipse cx="264" cy="311" rx="504" ry="210" fill="url(#g2)"/>
<g stroke="#ffffff" stroke-opacity="0.10" stroke-width="1">
<line x1="108" y1="247" x2="92" y2="342"/>
<line x1="108" y1="247" x2="157" y2="238"/>
<line x1="108" y1="247" x2="164" y2="171"/>
<line x1="669" y1="89" x2="606" y2="137"/>
<line x1="92" y1="342" x2="157" y2="238"/>
<line x1="501" y1="150" x2="606" y2="137"/>
<line x1="823" y1="97" x2="828" y2="172"/>
<line x1="1056" y1="92" x2="1114" y2="66"/>
<line x1="157" y1="238" x2="164" y2="171"/>
<line x1="164" y1="171" x2="281" y2="145"/>
</g>
<circle cx="108" cy="247" r="2.6" fill="#ffffff" fill-opacity="0.30"/>
<circle cx="669" cy="89" r="2.6" fill="#ffffff" fill-opacity="0.30"/>
<circle cx="92" cy="342" r="2.6" fill="#ffffff" fill-opacity="0.30"/>
<circle cx="501" cy="150" r="16" fill="#39c088" fill-opacity="0.14"/>
<circle cx="501" cy="150" r="4.5" fill="#39c088"/>
<circle cx="781" cy="340" r="16" fill="#5480f1" fill-opacity="0.14"/>
<circle cx="781" cy="340" r="4.5" fill="#5480f1"/>
<circle cx="395" cy="345" r="2.6" fill="#ffffff" fill-opacity="0.30"/>
<circle cx="823" cy="97" r="2.6" fill="#ffffff" fill-opacity="0.30"/>
<circle cx="1056" cy="92" r="2.6" fill="#ffffff" fill-opacity="0.30"/>
<circle cx="157" cy="238" r="2.6" fill="#ffffff" fill-opacity="0.30"/>
<circle cx="1114" cy="66" r="2.6" fill="#ffffff" fill-opacity="0.30"/>
<circle cx="1087" cy="280" r="2.6" fill="#ffffff" fill-opacity="0.30"/>
<circle cx="828" cy="172" r="2.6" fill="#ffffff" fill-opacity="0.30"/>
<circle cx="606" cy="137" r="16" fill="#5480f1" fill-opacity="0.14"/>
<circle cx="606" cy="137" r="4.5" fill="#5480f1"/>
<circle cx="164" cy="171" r="2.6" fill="#ffffff" fill-opacity="0.30"/>
<circle cx="281" cy="145" r="2.6" fill="#ffffff" fill-opacity="0.30"/>
<rect width="100%" height="100%" fill="#0e0f16" fill-opacity="0.18"/>
</svg>
