<svg xmlns="http://www.w3.org/2000/svg" viewBox="0 0 1600 1050" width="1600" height="1050" preserveAspectRatio="xMidYMid slice" role="img" aria-label="Topología de una red corporativa con conmutadores y equipos conectados">
<title>Topología de una red corporativa con conmutadores y equipos conectados</title>
<defs>
<linearGradient id="base" x1="0" y1="0" x2="1" y2="1"><stop offset="0" stop-color="#21222d"/><stop offset="0.55" stop-color="#191a23"/><stop offset="1" stop-color="#0f1017"/></linearGradient>
<radialGradient id="g1"><stop offset="0" stop-color="#5480f1" stop-opacity="0.34"/><stop offset="0.55" stop-color="#5480f1" stop-opacity="0.09"/><stop offset="1" stop-color="#5480f1" stop-opacity="0"/></radialGradient>
<radialGradient id="g2"><stop offset="0" stop-color="#39c088" stop-opacity="0.22"/><stop offset="1" stop-color="#39c088" stop-opacity="0"/></radialGradient>
<pattern id="malla" width="80" height="80" patternUnits="userSpaceOnUse"><path d="M 80 0 L 0 0 0 80" fill="none" stroke="#ffffff" stroke-opacity="0.025" stroke-width="1"/></pattern>
</defs>
<rect width="100%" height="100%" fill="url(#base)"/>
<rect width="100%" height="100%" fill="url(#malla)"/>
<ellipse cx="384" cy="273" rx="880" ry="651" fill="url(#g1)"/>
<ellipse cx="1312" cy="819" rx="720" ry="525" fill="url(#g2)"/>
<line x1="300" y1="250" x2="820" y2="520" stroke="#ffffff" stroke-opacity="0.16" stroke-width="2"/>
<line x1="300" y1="250" x2="620" y2="850" stroke="#ffffff" stroke-opacity="0.16" stroke-width="2"/>
<line x1="820" y1="520" x2="1300" y2="260" stroke="#ffffff" stroke-opacity="0.16" stroke-width="2"/>
<line x1="820" y1="520" x2="620" y2="850" stroke="#ffffff" stroke-opacity="0.16" stroke-width="2"/>
<line x1="820" y1="520" x2="1180" y2="830" stroke="#ffffff" stroke-opacity="0.16" stroke-width="2"/>
<line x1="1300" y1="260" x2="1180" y2="830" stroke="#ffffff" stroke-opacity="0.16" stroke-width="2"/>
<line x1="620" y1="850" x2="1180" y2="830" stroke="#ffffff" stroke-opacity="0.16" stroke-width="2"/>
<line x1="300" y1="250" x2="343" y2="57" stroke="#ffffff" stroke-opacity="0.09"/>
<rect x="330" y="47" width="26" height="20" rx="3" fill="#ffffff" fill-opacity="0.10" stroke="#ffffff" stroke-opacity="0.14"/>
<line x1="300" y1="250" x2="119" y2="237" stroke="#ffffff" stroke-opacity="0.09"/>
<rect x="106" y="227" width="26" height="20" rx="3" fill="#ffffff" fill-opacity="0.10" stroke="#ffffff" stroke-opacity="0.14"/>
<line x1="300" y1="250" x2="468" y2="247" stroke="#ffffff" stroke-opacity="0.09"/>
<rect x="455" y="237" width="26" height="20" rx="3" fill="#ffffff" fill-opacity="0.10" stroke="#ffffff" stroke-opacity="0.14"/>
<line x1="300" y1="250" x2="398" y2="382" stroke="#ffffff" stroke-opacity="0.09"/>
<rect x="385" y="372" width="26" height="20" rx="3" fill="#ffffff" fill-opacity="0.10" stroke="#ffffff" stroke-opacity="0.14"/>
<line x1="300" y1="250" x2="289" y2="422" stroke="#ffffff" stroke-opacity="0.09"/>
<rect x="276" y="412" width="26" height="20" rx="3" fill="#ffffff" fill-opacity="0.10" stroke="#ffffff" stroke-opacity="0.14"/>
<line x1="820" y1="520" x2="937" y2="321" stroke="#ffffff" stroke-opacity="0.09"/>
<rect x="924" y="311" width="26" height="20" rx="3" fill="#ffffff" fill-opacity="0.10" stroke="#ffffff" stroke-opacity="0.14"/>
<line x1="820" y1="520" x2="926" y2="440" stroke="#ffffff" stroke-opacity="0.09"/>
<rect x="913" y="430" width="26" height="20" rx="3" fill="#ffffff" fill-opacity="0.10" stroke="#ffffff" stroke-opacity="0.14"/>
<line x1="820" y1="520" x2="639" y2="355" stroke="#ffffff" stroke-opacity="0.09"/>
<rect x="626" y="345" width="26" height="20" rx="3" fill="#ffffff" fill-opacity="0.10" stroke="#ffffff" stroke-opacity="0.14"/>
<line x1="820" y1="520" x2="947" y2="451" stroke="#ffffff" stroke-opacity="0.09"/>
<rect x="934" y="441" width="26" height="20" rx="3" fill="#ffffff" fill-opacity="0.10" stroke="#ffffff" stroke-opacity="0.14"/>
<line x1="820" y1="520" x2="587" y2="587" stroke="#ffffff" stroke-opacity="0.09"/>
<rect x="574" y="577" width="26" height="20" rx="3" fill="#ffffff" fill-opacity="0.10" stroke="#ffffff" stroke-opacity="0.14"/>
<line x1="820" y1="520" x2="948" y2="584" stroke="#ffffff" stroke-opacity="0.09"/>
<rect x="935" y="574" width="26" height="20" rx="3" fill="#ffffff" fill-opacity="0.10" stroke="#ffffff" stroke-opacity="0.14"/>
<line x1="820" y1="520" x2="1024" y2="542" stroke="#ffffff" stroke-opacity="0.09"/>
<rect x="1011" y="532" width="26" height="20" rx="3" fill="#ffffff" fill-opacity="0.10" stroke="#ffffff" stroke-opacity="0.14"/>
<line x1="1300" y1="260" x2="1306" y2="79" stroke="#ffffff" stroke-opacity="0.09"/>
<rect x="1293" y="69" width="26" height="20" rx="3" fill="#ffffff" fill-opacity="0.10" stroke="#ffffff" stroke-opacity="0.14"/>
<line x1="1300" y1="260" x2="1208" y2="118" stroke="#ffffff" stroke-opacity="0.09"/>
<rect x="1195" y="108" width="26" height="20" rx="3" fill="#ffffff" fill-opacity="0.10" stroke="#ffffff" stroke-opacity="0.14"/>
<line x1="1300" y1="260" x2="1505" y2="139" stroke="#ffffff" stroke-opacity="0.09"/>
<rect x="1492" y="129" width="26" height="20" rx="3" fill="#ffffff" fill-opacity="0.10" stroke="#ffffff" stroke-opacity="0.14"/>
<line x1="1300" y1="260" x2="1366" y2="15" stroke="#ffffff" stroke-opacity="0.09"/>
<rect x="1353" y="5" width="26" height="20" rx="3" fill="#ffffff" fill-opacity="0.10" stroke="#ffffff" stroke-opacity="0.14"/>
<line x1="1300" y1="260" x2="1322" y2="460" stroke="#ffffff" stroke-opacity="0.09"/>
<rect x="1309" y="450" width="26" height="20" rx="3" fill="#ffffff" fill-opacity="0.10" stroke="#ffffff" stroke-opacity="0.14"/>
<line x1="1300" y1="260" x2="1273" y2="27" stroke="#ffffff" stroke-opacity="0.09"/>
<rect x="1260" y="17" width="26" height="20" rx="3" fill="#ffffff" fill-opacity="0.10" stroke="#ffffff" stroke-opacity="0.14"/>
<line x1="1300" y1="260" x2="1186" y2="354" stroke="#ffffff" stroke-opacity="0.09"/>
<rect x="1173" y="344" width="26" height="20" rx="3" fill="#ffffff" fill-opacity="0.10" stroke="#ffffff" stroke-opacity="0.14"/>
<line x1="1300" y1="260" x2="1199" y2="158" stroke="#ffffff" stroke-opacity="0.09"/>
<rect x="1186" y="148" width="26" height="20" rx="3" fill="#ffffff" fill-opacity="0.10" stroke="#ffffff" stroke-opacity="0.14"/>
<line x1="620" y1="850" x2="809" y2="858" stroke="#ffffff" stroke-opacity="0.09"/>
<rect x="796" y="848" width="26" height="20" rx="3" fill="#ffffff" fill-opacity="0.10" stroke="#ffffff" stroke-opacity="0.14"/>
<line x1="620" y1="850" x2="476" y2="868" stroke="#ffffff" stroke-opacity="0.09"/>
<rect x="463" y="858" width="26" height="20" rx="3" fill="#ffffff" fill-opacity="0.10" stroke="#ffffff" stroke-opacity="0.14"/>
<line x1="620" y1="850" x2="426" y2="874" stroke="#ffffff" stroke-opacity="0.09"/>
<rect x="413" y="864" width="26" height="20" rx="3" fill="#ffffff" fill-opacity="0.10" stroke="#ffffff" stroke-opacity="0.14"/>
<line x1="620" y1="850" x2="452" y2="1031" stroke="#ffffff" stroke-opacity="0.09"/>
<rect x="439" y="1021" width="26" height="20" rx="3" fill="#ffffff" fill-opacity="0.10" stroke="#ffffff" stroke-opacity="0.14"/>
<line x1="620" y1="850" x2="784" y2="667" stroke="#ffffff" stroke-opacity="0.09"/>
<rect x="771" y="657" width="26" height="20" rx="3" fill="#ffffff" fill-opacity="0.10" stroke="#ffffff" stroke-opacity="0.14"/>
<line x1="620" y1="850" x2="624" y2="983" stroke="#ffffff" stroke-opacity="0.09"/>
<rect x="611" y="973" width="26" height="20" rx="3" fill="#ffffff" fill-opacity="0.10" stroke="#ffffff" stroke-opacity="0.14"/>
<line x1="620" y1="850" x2="517" y2="951" stroke="#ffffff" stroke-opacity="0.09"/>
<rect x="504" y="941" width="26" height="20" rx="3" fill="#ffffff" fill-opacity="0.10" stroke="#ffffff" stroke-opacity="0.14"/>
<line x1="620" y1="850" x2="574" y2="692" stroke="#ffffff" stroke-opacity="0.09"/>
<rect x="561" y="682" width="26" height="20" rx="3" fill="#ffffff" fill-opacity="0.10" stroke="#ffffff" stroke-opacity="0.14"/>
<line x1="1180" y1="830" x2="994" y2="859" stroke="#ffffff" stroke-opacity="0.09"/>
<rect x="981" y="849" width="26" height="20" rx="3" fill="#ffffff" fill-opacity="0.10" stroke="#ffffff" stroke-opacity="0.14"/>
<line x1="1180" y1="830" x2="1139" y2="977" stroke="#ffffff" stroke-opacity="0.09"/>
<rect x="1126" y="967" width="26" height="20" rx="3" fill="#ffffff" fill-opacity="0.10" stroke="#ffffff" stroke-opacity="0.14"/>
<line x1="1180" y1="830" x2="1022" y2="894" stroke="#ffffff" stroke-opacity="0.09"/>
<rect x="1009" y="884" width="26" height="20" rx="3" fill="#ffffff" fill-opacity="0.10" stroke="#ffffff" stroke-opacity="0.14"/>
<line x1="1180" y1="830" x2="1194" y2="691" stroke="#ffffff" stroke-opacity="0.09"/>
<rect x="1181" y="681" width="26" height="20" rx="3" fill="#ffffff" fill-opacity="0.10" stroke="#ffffff" stroke-opacity="0.14"/>
<line x1="1180" y1="830" x2="1084" y2="1067" stroke="#ffffff" stroke-opacity="0.09"/>
<rect x="1071" y="1057" width="26" height="20" rx="3" fill="#ffffff" fill-opacity="0.10" stroke="#ffffff" stroke-opacity="0.14"/>
<line x1="1180" y1="830" x2="1013" y2="921" stroke="#ffffff" stroke-opacity="0.09"/>
<rect x="1000" y="911" width="26" height="20" rx="3" fill="#ffffff" fill-opacity="0.10" stroke="#ffffff" stroke-opacity="0.14"/>
<circle cx="300" cy="250" r="46" fill="#5480f1" fill-opacity="0.10"/>
<rect x="248" y="231" width="104" height="38" rx="5" fill="#20212c" stroke="#5480f1" stroke-opacity="0.55" stroke-width="2"/>
<rect x="258" y="244" width="7" height="12" rx="1" fill="#ffffff" fill-opacity="0.22"/>
<rect x="269" y="244" width="7" height="12" rx="1" fill="#ffffff" fill-opacity="0.22"/>
<rect x="280" y="244" width="7" height="12" rx="1" fill="#ffffff" fill-opacity="0.22"/>
<rect x="291" y="244" width="7" height="12" rx="1" fill="#ffffff" fill-opacity="0.22"/>
<rect x="302" y="244" width="7" height="12" rx="1" fill="#ffffff" fill-opacity="0.22"/>
<rect x="313" y="244" width="7" height="12" rx="1" fill="#ffffff" fill-opacity="0.22"/>
<rect x="324" y="244" width="7" height="12" rx="1" fill="#ffffff" fill-opacity="0.22"/>
<rect x="335" y="244" width="7" height="12" rx="1" fill="#ffffff" fill-opacity="0.22"/>
<circle cx="820" cy="520" r="46" fill="#5480f1" fill-opacity="0.10"/>
<rect x="768" y="501" width="104" height="38" rx="5" fill="#20212c" stroke="#5480f1" stroke-opacity="0.55" stroke-width="2"/>
<rect x="778" y="514" width="7" height="12" rx="1" fill="#ffffff" fill-opacity="0.22"/>
<rect x="789" y="514" width="7" height="12" rx="1" fill="#ffffff" fill-opacity="0.22"/>
<rect x="800" y="514" width="7" height="12" rx="1" fill="#ffffff" fill-opacity="0.22"/>
<rect x="811" y="514" width="7" height="12" rx="1" fill="#ffffff" fill-opacity="0.22"/>
<rect x="822" y="514" width="7" height="12" rx="1" fill="#ffffff" fill-opacity="0.22"/>
<rect x="833" y="514" width="7" height="12" rx="1" fill="#ffffff" fill-opacity="0.22"/>
<rect x="844" y="514" width="7" height="12" rx="1" fill="#ffffff" fill-opacity="0.22"/>
<rect x="855" y="514" width="7" height="12" rx="1" fill="#ffffff" fill-opacity="0.22"/>
<circle cx="1300" cy="260" r="46" fill="#5480f1" fill-opacity="0.10"/>
<rect x="1248" y="241" width="104" height="38" rx="5" fill="#20212c" stroke="#5480f1" stroke-opacity="0.55" stroke-width="2"/>
<rect x="1258" y="254" width="7" height="12" rx="1" fill="#ffffff" fill-opacity="0.22"/>
<rect x="1269" y="254" width="7" height="12" rx="1" fill="#ffffff" fill-opacity="0.22"/>
<rect x="1280" y="254" width="7" height="12" rx="1" fill="#ffffff" fill-opacity="0.22"/>
<rect x="1291" y="254" width="7" height="12" rx="1" fill="#ffffff" fill-opacity="0.22"/>
<rect x="1302" y="254" width="7" height="12" rx="1" fill="#ffffff" fill-opacity="0.22"/>
<rect x="1313" y="254" width="7" height="12" rx="1" fill="#ffffff" fill-opacity="0.22"/>
<rect x="1324" y="254" width="7" height="12" rx="1" fill="#ffffff" fill-opacity="0.22"/>
<rect x="1335" y="254" width="7" height="12" rx="1" fill="#ffffff" fill-opacity="0.22"/>
<circle cx="620" cy="850" r="46" fill="#5480f1" fill-opacity="0.10"/>
<rect x="568" y="831" width="104" height="38" rx="5" fill="#20212c" stroke="#5480f1" stroke-opacity="0.55" stroke-width="2"/>
<rect x="578" y="844" width="7" height="12" rx="1" fill="#ffffff" fill-opacity="0.22"/>
<rect x="589" y="844" width="7" height="12" rx="1" fill="#ffffff" fill-opacity="0.22"/>
<rect x="600" y="844" width="7" height="12" rx="1" fill="#ffffff" fill-opacity="0.22"/>
<rect x="611" y="844" width="7" height="12" rx="1" fill="#ffffff" fill-opacity="0.22"/>
<rect x="622" y="844" width="7" height="12" rx="1" fill="#ffffff" fill-opacity="0.22"/>
<rect x="633" y="844" width="7" height="12" rx="1" fill="#ffffff" fill-opacity="0.22"/>
<rect x="644" y="844" width="7" height="12" rx="1" fill="#ffffff" fill-opacity="0.22"/>
<rect x="655" y="844" width="7" height="12" rx="1" fill="#ffffff" fill-opacity="0.22"/>
<circle cx="1180" cy="830" r="46" fill="#5480f1" fill-opacity="0.10"/>
<rect x="1128" y="811" width="104" height="38" rx="5" fill="#20212c" stroke="#5480f1" stroke-opacity="0.55" stroke-width="2"/>
<rect x="1138" y="824" width="7" height="12" rx="1" fill="#ffffff" fill-opacity="0.22"/>
<rect x="1149" y="824" width="7" height="12" rx="1" fill="#ffffff" fill-opacity="0.22"/>
<rect x="1160" y="824" width="7" height="12" rx="1" fill="#ffffff" fill-opacity="0.22"/>
<rect x="1171" y="824" width="7" height="12" rx="1" fill="#ffffff" fill-opacity="0.22"/>
<rect x="1182" y="824" width="7" height="12" rx="1" fill="#ffffff" fill-opacity="0.22"/>
<rect x="1193" y="824" width="7" height="12" rx="1" fill="#ffffff" fill-opacity="0.22"/>
<rect x="1204" y="824" width="7" height="12" rx="1" fill="#ffffff" fill-opacity="0.22"/>
<rect x="1215" y="824" width="7" height="12" rx="1" fill="#ffffff" fill-opacity="0.22"/>
<rect width="100%" height="100%" fill="#0e0f16" fill-opacity="0.20"/>
</svg>
