<svg xmlns="http://www.w3.org/2000/svg" viewBox="0 0 1200 510" width="1200" height="510" role="img" aria-label="Una aplicación a medida integrada con el ERP, el CRM, la facturación, la tienda en línea, el almacén y el correo de la empresa">
<title>Una aplicación a medida integrada con el ERP, el CRM, la facturación, la tienda en línea, el almacén y el correo de la empresa</title>
<defs>
<linearGradient id="fondo" x1="0" y1="0" x2="1" y2="1"><stop offset="0" stop-color="#23242f"/><stop offset="1" stop-color="#14151d"/></linearGradient>
<marker id="flecha" viewBox="0 0 10 10" refX="9" refY="5" markerWidth="7" markerHeight="7" orient="auto-start-reverse"><path d="M 0 0 L 10 5 L 0 10 z" fill="#ffffff" fill-opacity="0.5"/></marker>
<pattern id="malla" width="40" height="40" patternUnits="userSpaceOnUse"><path d="M 40 0 L 0 0 0 40" fill="none" stroke="#ffffff" stroke-opacity="0.03" stroke-width="1"/></pattern>
<radialGradient id="brillo"><stop offset="0" stop-color="#5480f1" stop-opacity="0.22"/><stop offset="1" stop-color="#5480f1" stop-opacity="0"/></radialGradient>
</defs>
<rect width="1200" height="510" fill="url(#fondo)"/>
<rect width="1200" height="510" fill="url(#malla)"/>
<ellipse cx="864" cy="102" rx="540" ry="280" fill="url(#brillo)"/>
<text x="40" y="44" text-anchor="start" font-family="Roboto, Helvetica, Arial, sans-serif" font-size="17" font-weight="400" fill="#ffffff" fill-opacity="0.38" letter-spacing="2">SOFTWARE A MEDIDA QUE HABLA CON LO QUE YA TIENES</text>
<circle cx="600" cy="250" r="140" fill="#e44c65" fill-opacity="0.07"/>
<rect x="450" y="192" width="300" height="116" rx="8" fill="#ffffff" fill-opacity="0.07" stroke="#e44c65" stroke-opacity="0.6" stroke-width="3"/>
<rect x="450" y="192" width="300" height="4" rx="2" fill="#e44c65"/>
<text x="600" y="242" text-anchor="middle" font-family="Roboto, Helvetica, Arial, sans-serif" font-size="24" font-weight="300" fill="#ffffff" fill-opacity="0.95">Tu aplicación</text>
<text x="600" y="272" text-anchor="middle" font-family="Roboto, Helvetica, Arial, sans-serif" font-size="16" font-weight="300" fill="#ffffff" fill-opacity="0.55">Hecha para tu proceso, no al revés</text>
<rect x="70" y="58" width="200" height="76" rx="6" fill="#ffffff" fill-opacity="0.055" stroke="#5480f1" stroke-opacity="0.5" stroke-width="1.5"/>
<rect x="70" y="58" width="200" height="3.5" rx="2" fill="#5480f1"/>
<text x="170.0" y="92.0" text-anchor="middle" font-family="Roboto, Helvetica, Arial, sans-serif" font-size="20" font-weight="300" fill="#ffffff" fill-opacity="0.92">ERP</text>
<text x="170.0" y="116.0" text-anchor="middle" font-family="Roboto, Helvetica, Arial, sans-serif" font-size="16" font-weight="300" fill="#ffffff" fill-opacity="0.5">Gestión</text>
<path d="M 274 96 C 380 96 380 250 444 250" fill="none" stroke="#ffffff" stroke-opacity="0.28" stroke-width="2"/>
<rect x="70" y="212" width="200" height="76" rx="6" fill="#ffffff" fill-opacity="0.055" stroke="#5480f1" stroke-opacity="0.5" stroke-width="1.5"/>
<rect x="70" y="212" width="200" height="3.5" rx="2" fill="#5480f1"/>
<text x="170.0" y="246.0" text-anchor="middle" font-family="Roboto, Helvetica, Arial, sans-serif" font-size="20" font-weight="300" fill="#ffffff" fill-opacity="0.92">CRM</text>
<text x="170.0" y="270.0" text-anchor="middle" font-family="Roboto, Helvetica, Arial, sans-serif" font-size="16" font-weight="300" fill="#ffffff" fill-opacity="0.5">Clientes</text>
<path d="M 274 250 C 380 250 380 250 444 250" fill="none" stroke="#ffffff" stroke-opacity="0.28" stroke-width="2"/>
<rect x="70" y="366" width="200" height="76" rx="6" fill="#ffffff" fill-opacity="0.055" stroke="#39c088" stroke-opacity="0.5" stroke-width="1.5"/>
<rect x="70" y="366" width="200" height="3.5" rx="2" fill="#39c088"/>
<text x="170.0" y="400.0" text-anchor="middle" font-family="Roboto, Helvetica, Arial, sans-serif" font-size="20" font-weight="300" fill="#ffffff" fill-opacity="0.92">Facturación</text>
<text x="170.0" y="424.0" text-anchor="middle" font-family="Roboto, Helvetica, Arial, sans-serif" font-size="16" font-weight="300" fill="#ffffff" fill-opacity="0.5">Contabilidad</text>
<path d="M 274 404 C 380 404 380 250 444 250" fill="none" stroke="#ffffff" stroke-opacity="0.28" stroke-width="2"/>
<rect x="930" y="58" width="200" height="76" rx="6" fill="#ffffff" fill-opacity="0.055" stroke="#39c088" stroke-opacity="0.5" stroke-width="1.5"/>
<rect x="930" y="58" width="200" height="3.5" rx="2" fill="#39c088"/>
<text x="1030.0" y="92.0" text-anchor="middle" font-family="Roboto, Helvetica, Arial, sans-serif" font-size="20" font-weight="300" fill="#ffffff" fill-opacity="0.92">Tienda en línea</text>
<text x="1030.0" y="116.0" text-anchor="middle" font-family="Roboto, Helvetica, Arial, sans-serif" font-size="16" font-weight="300" fill="#ffffff" fill-opacity="0.5">Pedidos</text>
<path d="M 926 96 C 820 96 820 250 756 250" fill="none" stroke="#ffffff" stroke-opacity="0.28" stroke-width="2"/>
<rect x="930" y="212" width="200" height="76" rx="6" fill="#ffffff" fill-opacity="0.055" stroke="#5480f1" stroke-opacity="0.5" stroke-width="1.5"/>
<rect x="930" y="212" width="200" height="3.5" rx="2" fill="#5480f1"/>
<text x="1030.0" y="246.0" text-anchor="middle" font-family="Roboto, Helvetica, Arial, sans-serif" font-size="20" font-weight="300" fill="#ffffff" fill-opacity="0.92">Almacén</text>
<text x="1030.0" y="270.0" text-anchor="middle" font-family="Roboto, Helvetica, Arial, sans-serif" font-size="16" font-weight="300" fill="#ffffff" fill-opacity="0.5">Existencias</text>
<path d="M 926 250 C 820 250 820 250 756 250" fill="none" stroke="#ffffff" stroke-opacity="0.28" stroke-width="2"/>
<rect x="930" y="366" width="200" height="76" rx="6" fill="#ffffff" fill-opacity="0.055" stroke="#39c088" stroke-opacity="0.5" stroke-width="1.5"/>
<rect x="930" y="366" width="200" height="3.5" rx="2" fill="#39c088"/>
<text x="1030.0" y="400.0" text-anchor="middle" font-family="Roboto, Helvetica, Arial, sans-serif" font-size="20" font-weight="300" fill="#ffffff" fill-opacity="0.92">Correo</text>
<text x="1030.0" y="424.0" text-anchor="middle" font-family="Roboto, Helvetica, Arial, sans-serif" font-size="16" font-weight="300" fill="#ffffff" fill-opacity="0.5">Avisos</text>
<path d="M 926 404 C 820 404 820 250 756 250" fill="none" stroke="#ffffff" stroke-opacity="0.28" stroke-width="2"/>
<text x="600" y="484" text-anchor="middle" font-family="Roboto, Helvetica, Arial, sans-serif" font-size="18" font-weight="300" fill="#ffffff" fill-opacity="0.5">El código y la documentación son tuyos desde el primer día</text>
</svg>
